<svg viewBox="60 40 80 80" xmlns="http://www.w3.org/2000/svg">
  <defs>
    <linearGradient id="waveGradient1" x1="0%" y1="100%" x2="70.71%" y2="-70.71%">
      <stop offset="0%" style="stop-color:#2563eb;stop-opacity:1"/>
      <stop offset="100%" style="stop-color:#2563eb;stop-opacity:0"/>
    </linearGradient>
    <linearGradient id="waveGradient2" x1="0%" y1="100%" x2="70.71%" y2="-70.71%">
      <stop offset="0%" style="stop-color:#ec4899;stop-opacity:1"/>
      <stop offset="100%" style="stop-color:#ec4899;stop-opacity:0"/>
    </linearGradient>
  </defs>

  <g transform="translate(100 100) rotate(45) translate(-100 -100)">
    <circle cx="100" cy="100" r="4" fill="#1a365d"/>
    <path d="M60 100 L140 100" stroke="#1a365d" stroke-width="2"/>
    <path d="M60 100 C 100 130, 140 100, 140 100" fill="none" stroke="#1a365d" stroke-width="2"/>
    <circle cx="60" cy="100" r="3" fill="#1a365d"/>
    <circle cx="140" cy="100" r="3" fill="#1a365d"/>
    <path d="M100 100 Q 50 90, 100 80 Q 150 70, 100 60 Q 50 50, 100 40" fill="none" stroke="url(#waveGradient1)" stroke-width="2"/>
    <path d="M100 100 Q 150 90, 100 80 Q 50 70, 100 60 Q 150 50, 100 40" fill="none" stroke="url(#waveGradient1)" stroke-width="2"/>
    <path d="M100 100 Q 85 90, 100 80 Q 115 70, 100 60 Q 85 50, 100 40" fill="none" stroke="url(#waveGradient2)" stroke-width="2"/>
    <path d="M100 100 Q 115 90, 100 80 Q 85 70, 100 60 Q 115 50, 100 40" fill="none" stroke="url(#waveGradient2)" stroke-width="2"/>
    <path d="M100 100 L100 40" stroke="#1a365d" stroke-width="2"/>
  </g>
</svg>